<svg width="956" height="941" viewBox="0 0 956 941" fill="none" xmlns="http://www.w3.org/2000/svg">
<path d="M909.491 851.754H468.772C258.897 851.754 87.321 680.178 87.321 470.303C87.321 260.429 258.897 88.852 468.772 88.852C583.666 88.852 690.902 137.874 765.966 228.258C781.286 246.641 810.392 249.705 828.775 234.386C847.159 219.066 850.223 189.96 834.903 171.576C744.519 62.809 612.773 0 471.835 0C209.875 0 0 212.939 0 470.303C0 727.668 212.939 940.606 470.303 940.606H911.023C935.534 940.606 955.449 922.223 955.449 896.18C955.449 870.137 934.002 851.754 909.491 851.754ZM226.726 470.303C226.726 337.025 335.494 226.726 470.303 226.726C542.304 226.726 611.241 258.897 657.199 314.046C672.518 332.429 701.625 335.493 720.008 320.174C738.392 304.855 741.455 275.748 726.136 257.365C663.327 180.768 569.879 136.342 470.303 136.342C286.472 136.342 137.874 284.939 137.874 468.771C137.874 652.603 286.472 801.2 470.303 801.2H811.448C835.958 801.2 855.874 782.817 855.874 756.774C855.874 730.732 837.49 712.348 811.448 712.348H468.772C335.494 713.88 226.726 603.581 226.726 470.303ZM470.303 577.538L467.24 663.326H911.023C935.534 663.326 955.449 644.943 955.449 618.901C955.449 592.858 937.066 577.538 914.087 577.538H470.303Z" fill="#5837DD"/>
</svg>
