<svg width="141" height="390" viewBox="0 0 141 390" fill="none" xmlns="http://www.w3.org/2000/svg">
<g clip-path="url(#clip0_184_767)">
<path d="M-150.667 13.5465C-154.741 14.2066 -157.351 18.1479 -156.529 22.1615C-155.707 26.1752 -151.764 28.7399 -147.688 28.0956C-128.187 24.9786 -108.278 25.2643 -88.8612 28.9593C-66.997 33.12 -46.1846 41.5195 -27.6124 53.6782C-9.04009 65.837 6.92834 81.5168 19.3812 99.8225C31.8341 118.128 40.5275 138.701 44.9651 160.367C49.4028 182.033 49.4977 204.367 45.2445 226.095C40.9913 247.822 32.4733 268.517 20.1768 286.999C7.88031 305.48 -7.95386 321.385 -26.4216 333.807C-42.8223 344.838 -61.0159 352.928 -80.1715 357.729C-84.1733 358.739 -86.7902 362.647 -85.9681 366.661C-85.146 370.675 -81.1967 373.273 -77.191 372.278C-56.1136 367.074 -36.0953 358.213 -18.0674 346.088C2.02735 332.572 19.2565 315.265 32.6363 295.155C46.0161 275.046 55.2846 252.527 59.9125 228.886C64.5404 205.244 64.4371 180.942 59.6085 157.368C54.7799 133.793 45.3206 111.408 31.7706 91.4893C18.2207 71.5708 0.845426 54.5096 -19.363 41.2797C-39.5715 28.0498 -62.2175 18.9103 -86.0079 14.3831C-107.351 10.3215 -129.241 10.045 -150.667 13.5465Z" fill="url(#paint0_linear_184_767)" stroke="#050407" stroke-width="10"/>
<path d="M-146.681 -3.81902C-150.779 -3.14172 -153.406 0.819812 -152.579 4.85469C-151.753 8.88957 -147.786 11.4685 -143.686 10.805C-121.713 7.19573 -99.2622 7.46608 -77.3734 11.6236C-53.0224 16.2488 -29.8439 25.591 -9.1611 39.1169C11.5217 52.6427 29.3035 70.0873 43.1693 90.4547C57.0351 110.822 66.7132 133.713 71.6511 157.821C76.589 181.929 76.6899 206.782 71.9481 230.961C67.2063 255.139 57.7147 278.17 44.0151 298.738C30.3156 319.307 12.6764 337.009 -7.89526 350.836C-26.3869 363.264 -46.9238 372.339 -68.5461 377.659C-72.5768 378.661 -75.2103 382.592 -74.3838 386.627C-73.5574 390.661 -69.5844 393.271 -65.5504 392.283C-41.9941 386.558 -19.6205 376.709 0.508601 363.18C22.7176 348.253 41.7608 329.141 56.5507 306.936C71.3406 284.731 81.5877 259.867 86.7069 233.764C91.8261 207.661 91.7172 180.83 86.3863 154.803C81.0554 128.776 70.6069 104.063 55.6375 82.0747C40.6682 60.0863 21.4709 41.2532 -0.857992 26.6508C-23.1869 12.0484 -48.2103 1.9626 -74.4995 -3.03071C-98.3265 -7.55639 -122.771 -7.81637 -146.681 -3.81902Z" fill="url(#paint1_linear_184_767)" stroke="#050407" stroke-width="10"/>
<path d="M-142.199 -21.286C-146.31 -20.5935 -148.946 -16.6133 -148.115 -12.557C-147.284 -8.50076 -143.302 -5.90562 -139.189 -6.58647C-114.8 -10.6763 -89.8626 -10.4099 -65.5543 -5.77924C-38.7745 -0.677738 -13.2824 9.61795 9.46648 24.52C32.2154 39.422 51.7756 58.6385 67.0303 81.0723C82.285 103.506 92.9354 128.718 98.3735 155.268C103.812 181.819 103.931 209.187 98.7244 235.812C93.518 262.437 83.0879 287.796 68.0296 310.442C52.9713 333.088 33.5798 352.576 10.9621 367.796C-9.56812 381.61 -32.3928 391.659 -56.4254 397.487C-60.4747 398.478 -63.1166 402.43 -62.2858 406.487C-61.455 410.543 -57.4665 413.166 -53.4143 412.187C-27.4402 405.954 -2.77181 395.128 19.4018 380.207C43.6627 363.882 64.4632 342.978 80.6155 318.686C96.7678 294.395 107.956 267.194 113.54 238.635C119.125 210.075 118.997 180.718 113.164 152.239C107.331 123.76 95.9066 96.716 79.5435 72.6523C63.1805 48.5885 42.1992 27.9759 17.7975 11.9911C-6.6042 -3.99358 -33.9484 -15.0373 -62.6739 -20.5094C-88.9279 -25.5108 -115.866 -25.7666 -142.199 -21.286Z" fill="url(#paint2_linear_184_767)" stroke="#050407" stroke-width="10"/>
<path d="M-138.213 -38.6514C-142.347 -37.9417 -145 -33.941 -144.165 -29.8632C-143.33 -25.7854 -139.323 -23.1756 -135.187 -23.8758C-108.326 -28.4577 -80.8462 -28.2068 -54.0662 -23.1138C-24.7996 -17.5478 3.05873 -6.30953 27.9181 9.95951C52.7775 26.2285 74.1512 47.2097 90.8188 71.705C107.486 96.2004 119.121 123.73 125.06 152.723C130.998 181.715 131.123 211.602 125.428 240.678C119.733 269.754 108.329 297.448 91.868 322.181C75.4066 346.913 54.21 368.199 29.4884 384.823C6.86711 400.035 -18.301 411.069 -44.8005 417.416C-48.8785 418.399 -51.5368 422.374 -50.7016 426.451C-49.8664 430.529 -45.8542 433.165 -41.7739 432.192C-13.3208 425.438 13.7029 413.623 37.9778 397.299C64.353 379.564 86.9674 356.854 104.53 330.467C122.092 304.081 134.259 274.533 140.335 243.513C146.411 212.492 146.277 180.606 139.942 149.674C133.606 118.743 121.193 89.3716 103.41 63.2378C85.628 37.1041 62.8247 14.7195 36.3025 -2.6377C9.78036 -19.9949 -19.9413 -31.9849 -51.1654 -37.9232C-79.9032 -43.3885 -109.396 -43.6278 -138.213 -38.6514Z" fill="url(#paint3_linear_184_767)" stroke="#050407" stroke-width="10"/>
</g>
<defs>
<linearGradient id="paint0_linear_184_767" x1="-67.5595" y1="-3.48223" x2="5.91923" y2="355.261" gradientUnits="userSpaceOnUse">
<stop offset="0.260417" stop-color="#325A5B" stop-opacity="0"/>
<stop offset="0.473958" stop-color="#325A5B"/>
<stop offset="0.828125" stop-color="#325A5B" stop-opacity="0"/>
</linearGradient>
<linearGradient id="paint1_linear_184_767" x1="-54.114" y1="-22.7843" x2="27.0187" y2="373.328" gradientUnits="userSpaceOnUse">
<stop offset="0.192708" stop-color="#2E4A56" stop-opacity="0"/>
<stop offset="0.427083" stop-color="#2E4A56"/>
<stop offset="0.881603" stop-color="#2E4A56" stop-opacity="0"/>
</linearGradient>
<linearGradient id="paint2_linear_184_767" x1="-40.4117" y1="-42.139" x2="48.3751" y2="391.343" gradientUnits="userSpaceOnUse">
<stop offset="0.151042" stop-color="#293A52" stop-opacity="0"/>
<stop offset="0.572917" stop-color="#293A52"/>
<stop offset="0.942708" stop-color="#293A52" stop-opacity="0"/>
</linearGradient>
<linearGradient id="paint3_linear_184_767" x1="-26.9662" y1="-61.4412" x2="69.4746" y2="409.41" gradientUnits="userSpaceOnUse">
<stop offset="0.151042" stop-color="#252A4D" stop-opacity="0"/>
<stop offset="0.588542" stop-color="#252A4D"/>
<stop offset="0.947917" stop-color="#252A4D" stop-opacity="0"/>
</linearGradient>
<clipPath id="clip0_184_767">
<rect width="141" height="390" fill="white"/>
</clipPath>
</defs>
</svg>
