<svg width="718" height="283" viewBox="0 0 718 283" fill="none" xmlns="http://www.w3.org/2000/svg">
<path d="M0.735001 229.04H-0.264999V230.04H0.735001V229.04ZM0.735001 187.24L-0.0847244 186.667L-0.264999 186.925V187.24H0.735001ZM124.995 9.39999V8.39999H124.474L124.175 8.82723L124.995 9.39999ZM186.935 9.39999H187.935V8.39999H186.935V9.39999ZM186.935 182.68H185.935V183.68H186.935V182.68ZM220.375 182.68H221.375V181.68H220.375V182.68ZM220.375 229.04V230.04H221.375V229.04H220.375ZM186.935 229.04V228.04H185.935V229.04H186.935ZM186.935 283V284H187.935V283H186.935ZM133.735 283H132.735V284H133.735V283ZM133.735 229.04H134.735V228.04H133.735V229.04ZM137.155 66.4H138.155V63.1106L136.324 65.8434L137.155 66.4ZM59.255 182.68L58.4242 182.123L57.3814 183.68H59.255V182.68ZM137.155 182.68V183.68H138.155V182.68H137.155ZM1.735 229.04V187.24H-0.264999V229.04H1.735ZM1.55473 187.813L125.815 9.97275L124.175 8.82723L-0.0847244 186.667L1.55473 187.813ZM124.995 10.4H186.935V8.39999H124.995V10.4ZM185.935 9.39999V182.68H187.935V9.39999H185.935ZM186.935 183.68H220.375V181.68H186.935V183.68ZM219.375 182.68V229.04H221.375V182.68H219.375ZM220.375 228.04H186.935V230.04H220.375V228.04ZM185.935 229.04V283H187.935V229.04H185.935ZM186.935 282H133.735V284H186.935V282ZM134.735 283V229.04H132.735V283H134.735ZM133.735 228.04H0.735001V230.04H133.735V228.04ZM136.324 65.8434L58.4242 182.123L60.0858 183.237L137.986 66.9566L136.324 65.8434ZM59.255 183.68H137.155V181.68H59.255V183.68ZM138.155 182.68V66.4H136.155V182.68H138.155ZM277.805 37.9L276.964 37.3592L276.96 37.3653L277.805 37.9ZM435.505 37.9L434.66 38.4346L434.664 38.4407L435.505 37.9ZM435.505 244.62L434.662 244.083L434.658 244.089L435.505 244.62ZM277.805 244.62L276.958 245.151L276.962 245.157L277.805 244.62ZM403.205 93.76L402.221 93.9338L402.223 93.945L402.225 93.9561L403.205 93.76ZM388.765 62.22L388.013 62.8785L388.019 62.885L388.024 62.8915L388.765 62.22ZM324.545 62.22L323.804 61.5485L323.799 61.5549L323.793 61.5615L324.545 62.22ZM310.105 93.76L309.124 93.5676L309.123 93.5752L309.121 93.5828L310.105 93.76ZM310.105 189.52L309.12 189.691L309.121 189.694L310.105 189.52ZM324.545 221.06L323.804 221.732L323.81 221.737L323.815 221.743L324.545 221.06ZM389.145 221.06L389.876 221.743L389.881 221.737L389.886 221.732L389.145 221.06ZM403.585 189.52L404.57 189.694L404.571 189.691L403.585 189.52ZM255.245 140.88C255.245 97.1555 263.083 63.041 278.651 38.4346L276.96 37.3653C261.114 62.4123 253.245 96.9511 253.245 140.88H255.245ZM278.647 38.4407C294.377 13.9721 320.357 1.65999 356.845 1.65999V-0.340012C319.867 -0.340012 293.154 12.1746 276.964 37.3592L278.647 38.4407ZM356.845 1.65999C393.334 1.65999 419.184 13.972 434.66 38.4346L436.351 37.3653C420.414 12.1747 393.823 -0.340012 356.845 -0.340012V1.65999ZM434.664 38.4407C450.482 63.0457 458.445 97.1578 458.445 140.88H460.445C460.445 96.9488 452.449 62.4076 436.347 37.3592L434.664 38.4407ZM458.445 140.88C458.445 184.856 450.482 219.223 434.662 244.083L436.349 245.157C452.449 219.857 460.445 185.064 460.445 140.88H458.445ZM434.658 244.089C419.18 268.805 393.33 281.24 356.845 281.24V283.24C393.828 283.24 420.418 270.595 436.353 245.151L434.658 244.089ZM356.845 281.24C320.362 281.24 294.381 268.804 278.649 244.083L276.962 245.157C293.15 270.596 319.863 283.24 356.845 283.24V281.24ZM278.653 244.089C263.083 219.228 255.245 184.858 255.245 140.88H253.245C253.245 185.062 261.114 219.852 276.958 245.151L278.653 244.089ZM408.005 140.88C408.005 122.094 406.737 106.317 404.186 93.5639L402.225 93.9561C404.741 106.536 406.005 122.173 406.005 140.88H408.005ZM404.19 93.5862C401.884 80.5179 397.003 69.8204 389.506 61.5485L388.024 62.8915C395.221 70.8329 399.967 81.162 402.221 93.9338L404.19 93.5862ZM389.518 61.5615C382.179 53.1742 371.224 49.06 356.845 49.06V51.06C370.841 51.06 381.165 55.0525 388.013 62.8785L389.518 61.5615ZM356.845 49.06C342.465 49.06 331.393 53.1748 323.804 61.5485L325.286 62.8915C332.391 55.0518 342.852 51.06 356.845 51.06V49.06ZM323.793 61.5615C316.56 69.8272 311.684 80.513 309.124 93.5676L311.087 93.9524C313.594 81.167 318.344 70.8261 325.298 62.8785L323.793 61.5615ZM309.121 93.5828C306.827 106.328 305.685 122.098 305.685 140.88H307.685C307.685 122.168 308.824 106.526 311.09 93.9371L309.121 93.5828ZM305.685 140.88C305.685 160.168 306.827 176.442 309.12 189.691L311.091 189.349C308.824 176.251 307.685 160.099 307.685 140.88H305.685ZM309.121 189.694C311.427 202.762 316.308 213.46 323.804 221.732L325.286 220.388C318.09 212.447 313.344 202.118 311.09 189.346L309.121 189.694ZM323.815 221.743C331.406 229.858 342.475 233.84 356.845 233.84V231.84C342.843 231.84 332.378 227.969 325.276 220.377L323.815 221.743ZM356.845 233.84C371.216 233.84 382.285 229.858 389.876 221.743L388.415 220.377C381.313 227.969 370.848 231.84 356.845 231.84V233.84ZM389.886 221.732C397.383 213.46 402.264 202.762 404.57 189.694L402.601 189.346C400.347 202.118 395.601 212.447 388.404 220.388L389.886 221.732ZM404.571 189.691C406.864 176.442 408.005 160.168 408.005 140.88H406.005C406.005 160.099 404.867 176.251 402.6 189.349L404.571 189.691ZM497.63 229.04H496.63V230.04H497.63V229.04ZM497.63 187.24L496.81 186.667L496.63 186.925V187.24H497.63ZM621.89 9.39999V8.39999H621.368L621.07 8.82723L621.89 9.39999ZM683.83 9.39999H684.83V8.39999H683.83V9.39999ZM683.83 182.68H682.83V183.68H683.83V182.68ZM717.27 182.68H718.27V181.68H717.27V182.68ZM717.27 229.04V230.04H718.27V229.04H717.27ZM683.83 229.04V228.04H682.83V229.04H683.83ZM683.83 283V284H684.83V283H683.83ZM630.63 283H629.63V284H630.63V283ZM630.63 229.04H631.63V228.04H630.63V229.04ZM634.05 66.4H635.05V63.1106L633.219 65.8434L634.05 66.4ZM556.15 182.68L555.319 182.123L554.276 183.68H556.15V182.68ZM634.05 182.68V183.68H635.05V182.68H634.05ZM498.63 229.04V187.24H496.63V229.04H498.63ZM498.449 187.813L622.709 9.97275L621.07 8.82723L496.81 186.667L498.449 187.813ZM621.89 10.4H683.83V8.39999H621.89V10.4ZM682.83 9.39999V182.68H684.83V9.39999H682.83ZM683.83 183.68H717.27V181.68H683.83V183.68ZM716.27 182.68V229.04H718.27V182.68H716.27ZM717.27 228.04H683.83V230.04H717.27V228.04ZM682.83 229.04V283H684.83V229.04H682.83ZM683.83 282H630.63V284H683.83V282ZM631.63 283V229.04H629.63V283H631.63ZM630.63 228.04H497.63V230.04H630.63V228.04ZM633.219 65.8434L555.319 182.123L556.98 183.237L634.88 66.9566L633.219 65.8434ZM556.15 183.68H634.05V181.68H556.15V183.68ZM635.05 182.68V66.4H633.05V182.68H635.05Z" fill="url(#paint0_linear_7_1330)"/>
<defs>
<linearGradient id="paint0_linear_7_1330" x1="-18" y1="-2" x2="758.069" y2="104.208" gradientUnits="userSpaceOnUse">
<stop stop-color="#37DDAB"/>
<stop offset="1" stop-color="#5837DD"/>
</linearGradient>
</defs>
</svg>
