<svg width="267" height="289" viewBox="0 0 267 289" fill="none" xmlns="http://www.w3.org/2000/svg">
<path d="M126.48 289C196.333 289 252.96 281.929 252.96 273.207C252.96 264.485 196.333 257.415 126.48 257.415C56.6272 257.415 0 264.485 0 273.207C0 281.929 56.6272 289 126.48 289Z" fill="#212552"/>
<path d="M98.427 262.056V256.93C98.427 254.644 96.5568 252.774 94.2711 252.774H48.5554C46.2696 252.774 44.3994 254.644 44.3994 256.93V272.168C44.3994 274.454 46.2696 276.324 48.5554 276.324H78.9632C82.288 276.324 85.4743 275.008 87.8293 272.653L98.427 262.056Z" fill="#92D6E9"/>
<path opacity="0.3" d="M94.2711 252.774H48.5554C46.2696 252.774 44.3994 254.644 44.3994 256.93V271.06H89.4224L98.427 262.056V256.93C98.427 254.644 96.5568 252.774 94.2711 252.774Z" fill="#0A1E2B" stroke="#0A1E2B" stroke-width="4.91823" stroke-miterlimit="10" stroke-linecap="round" stroke-linejoin="round"/>
<path d="M154.533 262.056V256.93C154.533 254.644 156.403 252.774 158.689 252.774H204.404C206.69 252.774 208.56 254.644 208.56 256.93V272.168C208.56 274.454 206.69 276.324 204.404 276.324H173.996C170.672 276.324 167.485 275.008 165.13 272.653L154.533 262.056Z" fill="#92D6E9"/>
<path opacity="0.3" d="M204.404 252.774H158.689C156.403 252.774 154.533 254.644 154.533 256.93V262.056L163.537 271.06H208.56V256.93C208.56 254.644 206.69 252.774 204.404 252.774Z" fill="#0A1E2B" stroke="#0A1E2B" stroke-width="4.91823" stroke-miterlimit="10" stroke-linecap="round" stroke-linejoin="round"/>
<path d="M98.427 262.056V256.93C98.427 254.644 96.5568 252.774 94.2711 252.774H48.5554C46.2696 252.774 44.3994 254.644 44.3994 256.93V272.168C44.3994 274.454 46.2696 276.324 48.5554 276.324H78.9632C82.288 276.324 85.4743 275.008 87.8293 272.653L98.427 262.056Z" stroke="#212552" stroke-width="4.91823" stroke-miterlimit="10" stroke-linecap="round" stroke-linejoin="round"/>
<path d="M154.533 262.056V256.93C154.533 254.644 156.403 252.774 158.689 252.774H204.404C206.69 252.774 208.56 254.644 208.56 256.93V272.168C208.56 274.454 206.69 276.324 204.404 276.324H173.996C170.672 276.324 167.485 275.008 165.13 272.653L154.533 262.056Z" stroke="#212552" stroke-width="4.91823" stroke-miterlimit="10" stroke-linecap="round" stroke-linejoin="round"/>
<path d="M216.526 262.125H36.434C21.1262 262.125 8.72754 249.726 8.72754 234.418V54.3263C8.72754 39.0185 21.1262 26.6199 36.434 26.6199H216.526C231.834 26.6199 244.233 39.0185 244.233 54.3263V234.418C244.233 249.726 231.834 262.125 216.526 262.125Z" fill="#CBEDF9"/>
<path d="M216.526 26.6199H36.434C21.1262 26.6199 8.72754 39.0185 8.72754 54.3263V70.2576C8.72754 54.9497 21.1262 42.5511 36.434 42.5511H216.526C231.834 42.5511 244.233 54.9497 244.233 70.2576V54.3263C244.233 39.0185 231.834 26.6199 216.526 26.6199Z" fill="#E8F9FF"/>
<path opacity="0.23" d="M174.066 26.3428H191.798L179.815 51.5557L174.066 26.3428Z" fill="#0A1E2B" stroke="#0A1E2B" stroke-width="4.91823" stroke-miterlimit="10" stroke-linecap="round" stroke-linejoin="round"/>
<path d="M216.526 246.194H36.434C21.1262 246.194 8.72754 233.795 8.72754 218.487V234.419C8.72754 249.726 21.1262 262.125 36.434 262.125H216.526C231.834 262.125 244.233 249.726 244.233 234.419V218.487C244.233 233.795 231.834 246.194 216.526 246.194Z" fill="#92D6E9"/>
<path d="M216.526 262.125H36.434C21.1262 262.125 8.72754 249.726 8.72754 234.418V54.3263C8.72754 39.0185 21.1262 26.6199 36.434 26.6199H216.526C231.834 26.6199 244.233 39.0185 244.233 54.3263V234.418C244.233 249.726 231.834 262.125 216.526 262.125Z" stroke="#212552" stroke-width="4.91823" stroke-miterlimit="10" stroke-linecap="round" stroke-linejoin="round"/>
<path d="M208.214 51.5554H44.7462C38.6507 51.5554 33.6636 56.5426 33.6636 62.638V68.1793C33.6636 62.0839 38.6507 59.1747 44.7462 59.1747H208.214C214.31 59.1747 219.297 62.0839 219.297 68.1793V62.638C219.297 56.4733 214.31 51.5554 208.214 51.5554Z" fill="#E8F9FF"/>
<path d="M208.214 228.185H44.7462C38.6507 228.185 33.6636 223.197 33.6636 217.102V226.107C33.6636 232.202 38.6507 237.189 44.7462 237.189H208.214C214.31 237.189 219.297 232.202 219.297 226.107V217.102C219.297 223.197 214.31 228.185 208.214 228.185Z" fill="#92D6E9"/>
<path d="M44.7462 237.189C38.6507 237.189 33.6636 232.202 33.6636 226.106V62.638C33.6636 56.5426 38.6507 51.5554 44.7462 51.5554H208.214C214.31 51.5554 219.297 56.5426 219.297 62.638V226.106C219.297 232.202 214.31 237.189 208.214 237.189H44.7462Z" stroke="#212552" stroke-width="4.91823" stroke-miterlimit="10" stroke-linecap="round" stroke-linejoin="round"/>
<path opacity="0.23" d="M199.418 210.245H198.032C196.509 210.245 195.262 208.998 195.262 207.474V102.189C195.262 100.665 196.509 99.4187 198.032 99.4187H199.418C200.942 99.4187 202.188 100.665 202.188 102.189V207.474C202.188 208.998 200.942 210.245 199.418 210.245Z" fill="#0A1E2B" stroke="#0A1E2B" stroke-width="4.91823" stroke-miterlimit="10" stroke-linecap="round" stroke-linejoin="round"/>
<path d="M199.418 196.391H198.032C196.509 196.391 195.262 195.144 195.262 193.621V88.3361C195.262 86.8122 196.509 85.5654 198.032 85.5654H199.418C200.942 85.5654 202.188 86.8122 202.188 88.3361V193.621C202.188 195.144 200.942 196.391 199.418 196.391Z" fill="#92D6E9"/>
<path d="M199.418 196.391H198.032C196.509 196.391 195.262 195.144 195.262 193.621V88.3361C195.262 86.8122 196.509 85.5654 198.032 85.5654H199.418C200.942 85.5654 202.188 86.8122 202.188 88.3361V193.621C202.188 195.144 200.942 196.391 199.418 196.391Z" stroke="#212552" stroke-width="4.91823" stroke-miterlimit="10" stroke-linecap="round" stroke-linejoin="round"/>
<path opacity="0.23" d="M126.48 194.937C151.346 194.937 171.503 174.779 171.503 149.914C171.503 125.048 151.346 104.891 126.48 104.891C101.614 104.891 81.457 125.048 81.457 149.914C81.457 174.779 101.614 194.937 126.48 194.937Z" fill="#0A1E2B" stroke="#0A1E2B" stroke-width="4.91823" stroke-miterlimit="10" stroke-linecap="round" stroke-linejoin="round"/>
<path d="M126.48 189.395C151.346 189.395 171.503 169.238 171.503 144.372C171.503 119.507 151.346 99.3494 126.48 99.3494C101.614 99.3494 81.457 119.507 81.457 144.372C81.457 169.238 101.614 189.395 126.48 189.395Z" fill="#CBEDF9"/>
<path d="M126.48 189.395C151.346 189.395 171.503 169.238 171.503 144.372C171.503 119.507 151.346 99.3494 126.48 99.3494C101.614 99.3494 81.457 119.507 81.457 144.372C81.457 169.238 101.614 189.395 126.48 189.395Z" stroke="#212552" stroke-width="4.91823" stroke-miterlimit="10" stroke-linecap="round" stroke-linejoin="round"/>
<path d="M126.48 181.776C147.137 181.776 163.884 165.03 163.884 144.372C163.884 123.715 147.137 106.969 126.48 106.969C105.823 106.969 89.0762 123.715 89.0762 144.372C89.0762 165.03 105.823 181.776 126.48 181.776Z" fill="#92D6E9"/>
<path d="M126.48 115.973V172.771" stroke="#212552" stroke-width="8.19706" stroke-miterlimit="10" stroke-linecap="round" stroke-linejoin="round"/>
<path d="M154.879 144.372H98.0811" stroke="#212552" stroke-width="8.19706" stroke-miterlimit="10" stroke-linecap="round" stroke-linejoin="round"/>
<path d="M146.567 124.285L106.393 164.459" stroke="#212552" stroke-width="8.19706" stroke-miterlimit="10" stroke-linecap="round" stroke-linejoin="round"/>
<path d="M146.567 164.459L106.393 124.285" stroke="#212552" stroke-width="8.19706" stroke-miterlimit="10" stroke-linecap="round" stroke-linejoin="round"/>
<path opacity="0.3" d="M126.48 177.413C116.921 177.413 109.164 169.655 109.164 160.096V142.78H143.797V160.096C143.797 169.655 136.039 177.413 126.48 177.413Z" fill="#0A1E2B" stroke="#0A1E2B" stroke-width="4.91823" stroke-miterlimit="10" stroke-linecap="round" stroke-linejoin="round"/>
<path opacity="0.23" d="M33.6634 118.398C30.6157 118.398 28.1221 115.904 28.1221 112.856V96.2325C28.1221 93.1847 30.6157 90.6912 33.6634 90.6912C36.7111 90.6912 39.2047 93.1847 39.2047 96.2325V112.856C39.2047 115.904 36.7111 118.398 33.6634 118.398Z" fill="#0A1E2B" stroke="#0A1E2B" stroke-width="4.91823" stroke-miterlimit="10" stroke-linecap="round" stroke-linejoin="round"/>
<path opacity="0.23" d="M33.6634 208.79C30.6157 208.79 28.1221 206.296 28.1221 203.249V186.625C28.1221 183.577 30.6157 181.083 33.6634 181.083C36.7111 181.083 39.2047 183.577 39.2047 186.625V203.249C39.2047 206.296 36.7111 208.79 33.6634 208.79Z" fill="#0A1E2B" stroke="#0A1E2B" stroke-width="4.91823" stroke-miterlimit="10" stroke-linecap="round" stroke-linejoin="round"/>
<path d="M33.6634 112.856C30.6157 112.856 28.1221 110.363 28.1221 107.315V90.6912C28.1221 87.6435 30.6157 85.1499 33.6634 85.1499C36.7111 85.1499 39.2047 87.6435 39.2047 90.6912V107.315C39.2047 110.363 36.7111 112.856 33.6634 112.856Z" fill="#92D6E9"/>
<path d="M33.6634 203.595C30.6157 203.595 28.1221 201.101 28.1221 198.054V181.43C28.1221 178.382 30.6157 175.888 33.6634 175.888C36.7111 175.888 39.2047 178.382 39.2047 181.43V198.054C39.2047 201.101 36.7111 203.595 33.6634 203.595Z" fill="#92D6E9"/>
<path d="M33.6634 112.856C30.6157 112.856 28.1221 110.363 28.1221 107.315V90.6912C28.1221 87.6435 30.6157 85.1499 33.6634 85.1499C36.7111 85.1499 39.2047 87.6435 39.2047 90.6912V107.315C39.2047 110.363 36.7111 112.856 33.6634 112.856Z" stroke="#212552" stroke-width="4.91823" stroke-miterlimit="10" stroke-linecap="round" stroke-linejoin="round"/>
<path d="M33.6634 203.595C30.6157 203.595 28.1221 201.101 28.1221 198.054V181.43C28.1221 178.382 30.6157 175.888 33.6634 175.888C36.7111 175.888 39.2047 178.382 39.2047 181.43V198.054C39.2047 201.101 36.7111 203.595 33.6634 203.595Z" stroke="#212552" stroke-width="4.91823" stroke-miterlimit="10" stroke-linecap="round" stroke-linejoin="round"/>
<path d="M126.48 161.689C136.044 161.689 143.797 153.936 143.797 144.372C143.797 134.809 136.044 127.056 126.48 127.056C116.917 127.056 109.164 134.809 109.164 144.372C109.164 153.936 116.917 161.689 126.48 161.689Z" fill="#FFEA9E"/>
<path d="M126.48 152.13C130.765 152.13 134.238 148.657 134.238 144.372C134.238 140.088 130.765 136.615 126.48 136.615C122.195 136.615 118.722 140.088 118.722 144.372C118.722 148.657 122.195 152.13 126.48 152.13Z" fill="#EDC75D"/>
<path d="M126.48 160.304C135.279 160.304 142.411 153.171 142.411 144.372C142.411 135.574 135.279 128.441 126.48 128.441C117.681 128.441 110.549 135.574 110.549 144.372C110.549 153.171 117.681 160.304 126.48 160.304Z" stroke="#212552" stroke-width="6.55764" stroke-miterlimit="10" stroke-linecap="round" stroke-linejoin="round"/>
<path d="M181.2 51.5555H133.753V15.3985C133.753 12.6279 135.969 10.4114 138.74 10.4114H176.144C178.914 10.4114 181.131 12.6279 181.131 15.3985L181.2 51.5555Z" fill="#5F9E71" stroke="#212552" stroke-width="4.91823" stroke-miterlimit="10" stroke-linecap="round" stroke-linejoin="round"/>
<path d="M171.849 19.0007H161.736C161.736 21.3558 159.866 23.226 157.511 23.226C155.156 23.226 153.286 21.3558 153.286 19.0007H143.104C141.926 19.0007 140.887 19.9705 140.887 21.2173V51.5558H173.996V21.2173C174.066 19.9705 173.027 19.0007 171.849 19.0007Z" fill="#90C49E"/>
<path d="M157.512 54.0491C163.25 54.0491 167.901 49.6147 167.901 44.1441C167.901 38.6734 163.25 34.239 157.512 34.239C151.773 34.239 147.122 38.6734 147.122 44.1441C147.122 49.6147 151.773 54.0491 157.512 54.0491Z" fill="white"/>
<path d="M181.2 51.5555H133.753V15.3985C133.753 12.6279 135.969 10.4114 138.74 10.4114H176.144C178.914 10.4114 181.131 12.6279 181.131 15.3985L181.2 51.5555Z" stroke="#212552" stroke-width="4.91823" stroke-miterlimit="10" stroke-linecap="round" stroke-linejoin="round"/>
<path d="M263.627 38.9492L249.635 37.0098" stroke="#212552" stroke-width="4.91823" stroke-miterlimit="10" stroke-linecap="round" stroke-linejoin="round"/>
<path d="M230.31 16.9918L228.232 3" stroke="#212552" stroke-width="4.91823" stroke-miterlimit="10" stroke-linecap="round" stroke-linejoin="round"/>
<path d="M244.164 22.048L254.207 12.0044" stroke="#212552" stroke-width="4.91823" stroke-miterlimit="10" stroke-linecap="round" stroke-linejoin="round"/>
</svg>
